<?xml version="1.0" encoding="utf-8"?>
<!-- Generator: Adobe Illustrator 26.3.1, SVG Export Plug-In . SVG Version: 6.00 Build 0)  -->
<svg version="1.1" id="Capa_1" xmlns="http://www.w3.org/2000/svg" xmlns:xlink="http://www.w3.org/1999/xlink" x="0px" y="0px"
	 viewBox="0 0 428.9 368.3" style="enable-background:new 0 0 428.9 368.3;" xml:space="preserve">
<style type="text/css">
	.st0{fill:#FFDD00;}
</style>
<g>
	<g>
		<g>
			<circle class="st0" cx="62" cy="64.4" r="52.6"/>
			<circle class="st0" cx="366.8" cy="64.4" r="52.6"/>
		</g>
	</g>
	<g>
		<circle class="st0" cx="60.9" cy="266.5" r="35.4"/>
		<circle class="st0" cx="60.9" cy="266.5" r="35.4"/>
		<circle class="st0" cx="60.9" cy="266.6" r="35.4"/>
		<circle class="st0" cx="60.9" cy="266.6" r="35.4"/>
		<circle class="st0" cx="61" cy="266.6" r="35.4"/>
		<circle class="st0" cx="61" cy="266.7" r="35.4"/>
		<circle class="st0" cx="61.1" cy="266.8" r="35.4"/>
		<circle class="st0" cx="61.2" cy="266.9" r="35.4"/>
		<circle class="st0" cx="61.3" cy="267" r="35.4"/>
		<circle class="st0" cx="61.4" cy="267.1" r="35.4"/>
		<circle class="st0" cx="61.5" cy="267.2" r="35.4"/>
		<circle class="st0" cx="61.7" cy="267.4" r="35.4"/>
		<circle class="st0" cx="61.8" cy="267.5" r="35.4"/>
		<circle class="st0" cx="62" cy="267.7" r="35.4"/>
		<circle class="st0" cx="62.2" cy="267.9" r="35.4"/>
		<circle class="st0" cx="62.3" cy="268.1" r="35.4"/>
		<circle class="st0" cx="62.6" cy="268.3" r="35.4"/>
		<circle class="st0" cx="62.8" cy="268.5" r="35.4"/>
		<circle class="st0" cx="63" cy="268.7" r="35.4"/>
		<circle class="st0" cx="63.2" cy="269" r="35.4"/>
		<circle class="st0" cx="63.5" cy="269.2" r="35.4"/>
		<circle class="st0" cx="63.8" cy="269.5" r="35.4"/>
		<circle class="st0" cx="64.1" cy="269.8" r="35.4"/>
		<circle class="st0" cx="64.4" cy="270.1" r="35.4"/>
		<circle class="st0" cx="64.7" cy="270.3" r="35.4"/>
		<circle class="st0" cx="65" cy="270.7" r="35.4"/>
		<circle class="st0" cx="65.3" cy="271" r="35.4"/>
		<circle class="st0" cx="65.7" cy="271.3" r="35.4"/>
		<circle class="st0" cx="66" cy="271.6" r="35.4"/>
		<circle class="st0" cx="66.4" cy="272" r="35.4"/>
		<circle class="st0" cx="66.8" cy="272.3" r="35.4"/>
		<circle class="st0" cx="67.2" cy="272.7" r="35.4"/>
		<circle class="st0" cx="67.6" cy="273" r="35.4"/>
		<circle class="st0" cx="68.1" cy="273.4" r="35.4"/>
		<circle class="st0" cx="68.5" cy="273.8" r="35.4"/>
		<circle class="st0" cx="69" cy="274.2" r="35.4"/>
		<circle class="st0" cx="69.4" cy="274.6" r="35.4"/>
		<circle class="st0" cx="69.9" cy="275" r="35.4"/>
		<circle class="st0" cx="70.4" cy="275.4" r="35.4"/>
		<circle class="st0" cx="70.9" cy="275.9" r="35.4"/>
		<circle class="st0" cx="71.4" cy="276.3" r="35.4"/>
		<circle class="st0" cx="72" cy="276.7" r="35.4"/>
		<circle class="st0" cx="72.5" cy="277.2" r="35.4"/>
		<circle class="st0" cx="73.1" cy="277.6" r="35.4"/>
		<circle class="st0" cx="73.7" cy="278.1" r="35.4"/>
		<circle class="st0" cx="74.3" cy="278.5" r="35.4"/>
		<circle class="st0" cx="74.9" cy="279" r="35.4"/>
		<circle class="st0" cx="75.5" cy="279.5" r="35.4"/>
		<circle class="st0" cx="76.1" cy="280" r="35.4"/>
		<circle class="st0" cx="76.8" cy="280.5" r="35.4"/>
		<circle class="st0" cx="77.4" cy="281" r="35.4"/>
		<circle class="st0" cx="78.1" cy="281.5" r="35.4"/>
		<circle class="st0" cx="78.8" cy="282" r="35.4"/>
		<circle class="st0" cx="79.5" cy="282.5" r="35.4"/>
		<circle class="st0" cx="80.2" cy="283" r="35.4"/>
		<circle class="st0" cx="80.9" cy="283.5" r="35.4"/>
		<circle class="st0" cx="81.6" cy="284" r="35.4"/>
		<circle class="st0" cx="82.4" cy="284.5" r="35.4"/>
		<circle class="st0" cx="83.1" cy="285.1" r="35.4"/>
		<circle class="st0" cx="83.9" cy="285.6" r="35.4"/>
		<circle class="st0" cx="84.7" cy="286.1" r="35.4"/>
		<circle class="st0" cx="85.5" cy="286.7" r="35.4"/>
		<circle class="st0" cx="86.3" cy="287.2" r="35.4"/>
		<circle class="st0" cx="87.2" cy="287.7" r="35.4"/>
		<circle class="st0" cx="88" cy="288.3" r="35.4"/>
		<circle class="st0" cx="88.9" cy="288.8" r="35.4"/>
		<circle class="st0" cx="89.8" cy="289.4" r="35.4"/>
		<circle class="st0" cx="90.6" cy="289.9" r="35.4"/>
		<circle class="st0" cx="91.5" cy="290.5" r="35.4"/>
		<circle class="st0" cx="92.4" cy="291" r="35.4"/>
		<circle class="st0" cx="93.4" cy="291.6" r="35.4"/>
		<circle class="st0" cx="94.3" cy="292.1" r="35.4"/>
		<circle class="st0" cx="95.3" cy="292.7" r="35.4"/>
		<circle class="st0" cx="96.2" cy="293.3" r="35.4"/>
		<circle class="st0" cx="97.2" cy="293.8" r="35.4"/>
		<circle class="st0" cx="98.2" cy="294.4" r="35.4"/>
		<circle class="st0" cx="99.2" cy="294.9" r="35.4"/>
		<circle class="st0" cx="100.2" cy="295.5" r="35.4"/>
		<circle class="st0" cx="101.3" cy="296" r="35.4"/>
		<circle class="st0" cx="102.3" cy="296.6" r="35.4"/>
		<circle class="st0" cx="103.4" cy="297.2" r="35.4"/>
		<circle class="st0" cx="104.5" cy="297.7" r="35.4"/>
		<circle class="st0" cx="105.5" cy="298.3" r="35.4"/>
		<circle class="st0" cx="106.6" cy="298.8" r="35.4"/>
		<circle class="st0" cx="107.8" cy="299.4" r="35.4"/>
		<circle class="st0" cx="108.9" cy="299.9" r="35.4"/>
		<circle class="st0" cx="110" cy="300.5" r="35.4"/>
		<circle class="st0" cx="111.2" cy="301" r="35.4"/>
		<circle class="st0" cx="112.4" cy="301.5" r="35.4"/>
		<circle class="st0" cx="113.5" cy="302.1" r="35.4"/>
		<circle class="st0" cx="114.7" cy="302.6" r="35.4"/>
		<circle class="st0" cx="116" cy="303.2" r="35.4"/>
		<circle class="st0" cx="117.2" cy="303.7" r="35.4"/>
		<circle class="st0" cx="118.4" cy="304.2" r="35.4"/>
		<circle class="st0" cx="119.7" cy="304.7" r="35.4"/>
		<circle class="st0" cx="120.9" cy="305.3" r="35.4"/>
		<circle class="st0" cx="122.2" cy="305.8" r="35.4"/>
		<circle class="st0" cx="123.5" cy="306.3" r="35.4"/>
		<circle class="st0" cx="124.8" cy="306.8" r="35.4"/>
		<circle class="st0" cx="126.1" cy="307.3" r="35.4"/>
		<circle class="st0" cx="127.5" cy="307.8" r="35.4"/>
		<circle class="st0" cx="128.8" cy="308.3" r="35.4"/>
		<circle class="st0" cx="130.2" cy="308.8" r="35.4"/>
		<circle class="st0" cx="131.5" cy="309.3" r="35.4"/>
		<circle class="st0" cx="132.9" cy="309.8" r="35.4"/>
		<circle class="st0" cx="134.3" cy="310.2" r="35.4"/>
		<circle class="st0" cx="135.8" cy="310.7" r="35.4"/>
		<circle class="st0" cx="137.2" cy="311.2" r="35.4"/>
		<circle class="st0" cx="138.6" cy="311.6" r="35.4"/>
		<circle class="st0" cx="140.1" cy="312.1" r="35.4"/>
		<circle class="st0" cx="141.6" cy="312.5" r="35.4"/>
		<circle class="st0" cx="143" cy="312.9" r="35.4"/>
		<circle class="st0" cx="144.5" cy="313.4" r="35.4"/>
		<circle class="st0" cx="146" cy="313.8" r="35.4"/>
		<circle class="st0" cx="147.6" cy="314.2" r="35.4"/>
		<circle class="st0" cx="149.1" cy="314.6" r="35.4"/>
		<circle class="st0" cx="150.7" cy="315" r="35.4"/>
		<circle class="st0" cx="152.2" cy="315.4" r="35.4"/>
		<circle class="st0" cx="153.8" cy="315.8" r="35.4"/>
		<circle class="st0" cx="155.4" cy="316.2" r="35.4"/>
		<circle class="st0" cx="157" cy="316.5" r="35.4"/>
		<circle class="st0" cx="158.6" cy="316.9" r="35.4"/>
		<circle class="st0" cx="160.3" cy="317.2" r="35.4"/>
		<circle class="st0" cx="161.9" cy="317.6" r="35.4"/>
		<circle class="st0" cx="163.6" cy="317.9" r="35.4"/>
		<circle class="st0" cx="165.3" cy="318.2" r="35.4"/>
		<circle class="st0" cx="166.9" cy="318.5" r="35.4"/>
		<circle class="st0" cx="168.7" cy="318.8" r="35.4"/>
		<circle class="st0" cx="170.4" cy="319.1" r="35.4"/>
		<circle class="st0" cx="172.1" cy="319.4" r="35.4"/>
		<circle class="st0" cx="173.8" cy="319.7" r="35.4"/>
		<circle class="st0" cx="175.6" cy="319.9" r="35.4"/>
		<circle class="st0" cx="177.4" cy="320.2" r="35.4"/>
		<circle class="st0" cx="179.2" cy="320.4" r="35.4"/>
		<circle class="st0" cx="181" cy="320.6" r="35.4"/>
		<circle class="st0" cx="182.8" cy="320.8" r="35.4"/>
		<circle class="st0" cx="184.6" cy="321" r="35.4"/>
		<circle class="st0" cx="186.5" cy="321.2" r="35.4"/>
		<circle class="st0" cx="188.3" cy="321.4" r="35.4"/>
		<circle class="st0" cx="190.2" cy="321.6" r="35.4"/>
		<circle class="st0" cx="192.1" cy="321.7" r="35.4"/>
		<circle class="st0" cx="194" cy="321.8" r="35.4"/>
		<circle class="st0" cx="195.9" cy="322" r="35.4"/>
		<circle class="st0" cx="197.8" cy="322.1" r="35.4"/>
		<circle class="st0" cx="199.7" cy="322.2" r="35.4"/>
		<circle class="st0" cx="201.7" cy="322.3" r="35.4"/>
		<circle class="st0" cx="203.7" cy="322.3" r="35.4"/>
		<circle class="st0" cx="205.6" cy="322.4" r="35.4"/>
		<circle class="st0" cx="207.6" cy="322.4" r="35.4"/>
		<circle class="st0" cx="209.6" cy="322.5" r="35.4"/>
		<circle class="st0" cx="211.7" cy="322.5" r="35.4"/>
		<circle class="st0" cx="213.7" cy="322.5" r="35.4"/>
		<circle class="st0" cx="215.7" cy="322.5" r="35.4"/>
		<circle class="st0" cx="217.7" cy="322.4" r="35.4"/>
		<circle class="st0" cx="219.7" cy="322.4" r="35.4"/>
		<circle class="st0" cx="221.7" cy="322.3" r="35.4"/>
		<circle class="st0" cx="223.6" cy="322.3" r="35.4"/>
		<circle class="st0" cx="225.6" cy="322.2" r="35.4"/>
		<circle class="st0" cx="227.5" cy="322.1" r="35.4"/>
		<circle class="st0" cx="229.5" cy="322" r="35.4"/>
		<circle class="st0" cx="231.4" cy="321.8" r="35.4"/>
		<circle class="st0" cx="233.3" cy="321.7" r="35.4"/>
		<circle class="st0" cx="235.1" cy="321.6" r="35.4"/>
		<circle class="st0" cx="237" cy="321.4" r="35.4"/>
		<circle class="st0" cx="238.9" cy="321.2" r="35.4"/>
		<circle class="st0" cx="240.7" cy="321" r="35.4"/>
		<circle class="st0" cx="242.5" cy="320.8" r="35.4"/>
		<circle class="st0" cx="244.3" cy="320.6" r="35.4"/>
		<circle class="st0" cx="246.1" cy="320.4" r="35.4"/>
		<circle class="st0" cx="247.9" cy="320.2" r="35.4"/>
		<circle class="st0" cx="249.7" cy="319.9" r="35.4"/>
		<circle class="st0" cx="251.4" cy="319.7" r="35.4"/>
		<circle class="st0" cx="253.2" cy="319.4" r="35.4"/>
		<circle class="st0" cx="254.9" cy="319.1" r="35.4"/>
		<circle class="st0" cx="256.6" cy="318.8" r="35.4"/>
		<circle class="st0" cx="258.3" cy="318.5" r="35.4"/>
		<circle class="st0" cx="260" cy="318.2" r="35.4"/>
		<circle class="st0" cx="261.7" cy="317.9" r="35.4"/>
		<circle class="st0" cx="263.4" cy="317.6" r="35.4"/>
		<circle class="st0" cx="265" cy="317.2" r="35.4"/>
		<circle class="st0" cx="266.6" cy="316.9" r="35.4"/>
		<circle class="st0" cx="268.3" cy="316.5" r="35.4"/>
		<circle class="st0" cx="269.9" cy="316.2" r="35.4"/>
		<circle class="st0" cx="271.5" cy="315.8" r="35.4"/>
		<circle class="st0" cx="273" cy="315.4" r="35.4"/>
		<circle class="st0" cx="274.6" cy="315" r="35.4"/>
		<circle class="st0" cx="276.1" cy="314.6" r="35.4"/>
		<circle class="st0" cx="277.7" cy="314.2" r="35.4"/>
		<circle class="st0" cx="279.2" cy="313.8" r="35.4"/>
		<circle class="st0" cx="280.7" cy="313.4" r="35.4"/>
		<circle class="st0" cx="282.2" cy="312.9" r="35.4"/>
		<circle class="st0" cx="283.7" cy="312.5" r="35.4"/>
		<circle class="st0" cx="285.2" cy="312.1" r="35.4"/>
		<circle class="st0" cx="286.6" cy="311.6" r="35.4"/>
		<circle class="st0" cx="288.1" cy="311.2" r="35.4"/>
		<circle class="st0" cx="289.5" cy="310.7" r="35.4"/>
		<circle class="st0" cx="290.9" cy="310.2" r="35.4"/>
		<circle class="st0" cx="292.3" cy="309.8" r="35.4"/>
		<circle class="st0" cx="293.7" cy="309.3" r="35.4"/>
		<circle class="st0" cx="295.1" cy="308.8" r="35.4"/>
		<circle class="st0" cx="296.4" cy="308.3" r="35.4"/>
		<circle class="st0" cx="297.8" cy="307.8" r="35.4"/>
		<circle class="st0" cx="299.1" cy="307.3" r="35.4"/>
		<circle class="st0" cx="300.4" cy="306.8" r="35.4"/>
		<circle class="st0" cx="301.8" cy="306.3" r="35.4"/>
		<circle class="st0" cx="303" cy="305.8" r="35.4"/>
		<circle class="st0" cx="304.3" cy="305.3" r="35.4"/>
		<circle class="st0" cx="305.6" cy="304.8" r="35.4"/>
		<circle class="st0" cx="306.8" cy="304.2" r="35.4"/>
		<circle class="st0" cx="308.1" cy="303.7" r="35.4"/>
		<circle class="st0" cx="309.3" cy="303.2" r="35.4"/>
		<circle class="st0" cx="310.5" cy="302.6" r="35.4"/>
		<circle class="st0" cx="311.7" cy="302.1" r="35.4"/>
		<circle class="st0" cx="312.9" cy="301.6" r="35.4"/>
		<circle class="st0" cx="314.1" cy="301" r="35.4"/>
		<circle class="st0" cx="315.2" cy="300.5" r="35.4"/>
		<circle class="st0" cx="316.4" cy="299.9" r="35.4"/>
		<circle class="st0" cx="317.5" cy="299.4" r="35.4"/>
		<circle class="st0" cx="318.6" cy="298.8" r="35.4"/>
		<circle class="st0" cx="319.7" cy="298.3" r="35.4"/>
		<circle class="st0" cx="320.8" cy="297.7" r="35.4"/>
		<circle class="st0" cx="321.9" cy="297.2" r="35.4"/>
		<circle class="st0" cx="323" cy="296.6" r="35.4"/>
		<circle class="st0" cx="324" cy="296" r="35.4"/>
		<circle class="st0" cx="325" cy="295.5" r="35.4"/>
		<circle class="st0" cx="326.1" cy="294.9" r="35.4"/>
		<circle class="st0" cx="327.1" cy="294.4" r="35.4"/>
		<circle class="st0" cx="328.1" cy="293.8" r="35.4"/>
		<circle class="st0" cx="329.1" cy="293.3" r="35.4"/>
		<circle class="st0" cx="330" cy="292.7" r="35.4"/>
		<circle class="st0" cx="331" cy="292.1" r="35.4"/>
		<circle class="st0" cx="331.9" cy="291.6" r="35.4"/>
		<circle class="st0" cx="332.9" cy="291" r="35.4"/>
		<circle class="st0" cx="333.8" cy="290.5" r="35.4"/>
		<circle class="st0" cx="334.7" cy="289.9" r="35.4"/>
		<circle class="st0" cx="335.6" cy="289.4" r="35.4"/>
		<circle class="st0" cx="336.4" cy="288.8" r="35.4"/>
		<circle class="st0" cx="337.3" cy="288.3" r="35.4"/>
		<circle class="st0" cx="338.1" cy="287.7" r="35.4"/>
		<circle class="st0" cx="339" cy="287.2" r="35.4"/>
		<circle class="st0" cx="339.8" cy="286.7" r="35.4"/>
		<circle class="st0" cx="340.6" cy="286.1" r="35.4"/>
		<circle class="st0" cx="341.4" cy="285.6" r="35.4"/>
		<circle class="st0" cx="342.2" cy="285.1" r="35.4"/>
		<circle class="st0" cx="342.9" cy="284.5" r="35.4"/>
		<circle class="st0" cx="343.7" cy="284" r="35.4"/>
		<circle class="st0" cx="344.4" cy="283.5" r="35.4"/>
		<circle class="st0" cx="345.2" cy="283" r="35.4"/>
		<circle class="st0" cx="345.9" cy="282.5" r="35.4"/>
		<circle class="st0" cx="346.6" cy="282" r="35.4"/>
		<circle class="st0" cx="347.3" cy="281.5" r="35.4"/>
		<circle class="st0" cx="347.9" cy="281" r="35.4"/>
		<circle class="st0" cx="348.6" cy="280.5" r="35.4"/>
		<circle class="st0" cx="349.2" cy="280" r="35.4"/>
		<circle class="st0" cx="349.9" cy="279.5" r="35.4"/>
		<circle class="st0" cx="350.5" cy="279" r="35.4"/>
		<circle class="st0" cx="351.1" cy="278.5" r="35.4"/>
		<circle class="st0" cx="351.7" cy="278.1" r="35.4"/>
		<circle class="st0" cx="352.3" cy="277.6" r="35.4"/>
		<circle class="st0" cx="352.8" cy="277.2" r="35.4"/>
		<circle class="st0" cx="353.4" cy="276.7" r="35.4"/>
		<circle class="st0" cx="353.9" cy="276.3" r="35.4"/>
		<circle class="st0" cx="354.4" cy="275.9" r="35.4"/>
		<circle class="st0" cx="355" cy="275.4" r="35.4"/>
		<circle class="st0" cx="355.5" cy="275" r="35.4"/>
		<circle class="st0" cx="355.9" cy="274.6" r="35.4"/>
		<circle class="st0" cx="356.4" cy="274.2" r="35.4"/>
		<circle class="st0" cx="356.9" cy="273.8" r="35.4"/>
		<circle class="st0" cx="357.3" cy="273.4" r="35.4"/>
		<circle class="st0" cx="357.8" cy="273" r="35.4"/>
		<circle class="st0" cx="358.2" cy="272.7" r="35.4"/>
		<circle class="st0" cx="358.6" cy="272.3" r="35.4"/>
		<circle class="st0" cx="359" cy="272" r="35.4"/>
		<circle class="st0" cx="359.3" cy="271.6" r="35.4"/>
		<circle class="st0" cx="359.7" cy="271.3" r="35.4"/>
		<circle class="st0" cx="360.1" cy="271" r="35.4"/>
		<circle class="st0" cx="360.4" cy="270.7" r="35.4"/>
		<circle class="st0" cx="360.7" cy="270.3" r="35.4"/>
		<circle class="st0" cx="361" cy="270.1" r="35.4"/>
		<circle class="st0" cx="361.3" cy="269.8" r="35.4"/>
		<circle class="st0" cx="361.6" cy="269.5" r="35.4"/>
		<circle class="st0" cx="361.9" cy="269.2" r="35.4"/>
		<circle class="st0" cx="362.2" cy="269" r="35.4"/>
		<circle class="st0" cx="362.4" cy="268.7" r="35.4"/>
		<circle class="st0" cx="362.6" cy="268.5" r="35.4"/>
		<circle class="st0" cx="362.9" cy="268.3" r="35.4"/>
		<circle class="st0" cx="363.1" cy="268.1" r="35.4"/>
		<circle class="st0" cx="363.2" cy="267.9" r="35.4"/>
		<circle class="st0" cx="363.4" cy="267.7" r="35.4"/>
		<circle class="st0" cx="363.6" cy="267.5" r="35.4"/>
		<circle class="st0" cx="363.7" cy="267.4" r="35.4"/>
		<circle class="st0" cx="363.9" cy="267.2" r="35.4"/>
		<circle class="st0" cx="364" cy="267.1" r="35.4"/>
		<circle class="st0" cx="364.1" cy="267" r="35.4"/>
		<circle class="st0" cx="364.2" cy="266.9" r="35.4"/>
		<circle class="st0" cx="364.3" cy="266.8" r="35.4"/>
		<circle class="st0" cx="364.4" cy="266.7" r="35.4"/>
		<circle class="st0" cx="364.4" cy="266.6" r="35.4"/>
		<circle class="st0" cx="364.5" cy="266.6" r="35.4"/>
		<circle class="st0" cx="364.5" cy="266.6" r="35.4"/>
		<circle class="st0" cx="364.5" cy="266.5" r="35.4"/>
		<circle class="st0" cx="364.5" cy="266.5" r="35.4"/>
	</g>
</g>
</svg>
